<?xml version="1.0" encoding="UTF-8" standalone="no"?>
<svg
   width="60"
   height="68.697403"
   fill="none"
   version="1.1"
   id="svg5026"
   sodipodi:docname="cherry-mx.svg"
   inkscape:version="1.2.2 (b0a8486541, 2022-12-01)"
   xmlns:inkscape="http://www.inkscape.org/namespaces/inkscape"
   xmlns:sodipodi="http://sodipodi.sourceforge.net/DTD/sodipodi-0.dtd"
   xmlns="http://www.w3.org/2000/svg"
   xmlns:svg="http://www.w3.org/2000/svg">
  <sodipodi:namedview
     id="namedview5028"
     pagecolor="#ffffff"
     bordercolor="#000000"
     borderopacity="0.25"
     inkscape:showpageshadow="2"
     inkscape:pageopacity="0.0"
     inkscape:pagecheckerboard="0"
     inkscape:deskcolor="#d1d1d1"
     showgrid="false"
     inkscape:zoom="8.2446812"
     inkscape:cx="-21.04387"
     inkscape:cy="20.740644"
     inkscape:window-width="1920"
     inkscape:window-height="1018"
     inkscape:window-x="0"
     inkscape:window-y="0"
     inkscape:window-maximized="1"
     inkscape:current-layer="layer3" />
  <defs
     id="defs5024">
    <linearGradient
       id="stem_paint0_linear"
       x1="14.567"
       y1="9.5"
       x2="7.5669999"
       y2="9"
       gradientUnits="userSpaceOnUse">
      <stop
         offset=".276"
         stop-opacity=".24"
         id="stop4966" />
      <stop
         offset=".828"
         stop-opacity=".05"
         id="stop4968" />
    </linearGradient>
    <linearGradient
       id="stem_paint1_linear"
       x1="15.457"
       y1="9.5"
       x2="22.457001"
       y2="9"
       gradientUnits="userSpaceOnUse">
      <stop
         offset=".448"
         stop-opacity=".15"
         id="stop4971" />
      <stop
         offset=".88"
         stop-opacity=".04"
         id="stop4973" />
    </linearGradient>
    <linearGradient
       id="stem_paint2_linear"
       x1="15.067"
       y1="3"
       x2="15.067"
       y2="4"
       gradientUnits="userSpaceOnUse">
      <stop
         stop-opacity=".3"
         id="stop4976" />
      <stop
         offset="1"
         stop-opacity="0"
         id="stop4978" />
    </linearGradient>
    <linearGradient
       id="stem_paint3_linear"
       x1="15.067"
       y1="6.5"
       x2="15.067"
       y2="5.5"
       gradientUnits="userSpaceOnUse">
      <stop
         stop-color="#fff"
         stop-opacity=".1"
         id="stop4981" />
      <stop
         offset=".375"
         stop-color="#fff"
         stop-opacity="0"
         id="stop4983" />
    </linearGradient>
    <linearGradient
       id="stem_paint4_linear"
       x1="12"
       y1="37"
       x2="18"
       y2="37"
       gradientUnits="userSpaceOnUse">
      <stop
         offset=".177"
         stop-color="#2F2F2F"
         stop-opacity=".25"
         id="stop4986" />
      <stop
         offset=".497"
         stop-color="#434343"
         stop-opacity="0"
         id="stop4988" />
      <stop
         offset=".797"
         stop-color="#2F2F2F"
         stop-opacity=".25"
         id="stop4990" />
    </linearGradient>
    <linearGradient
       id="stem_paint5_linear"
       x1="3"
       y1="32.5"
       x2="5.5"
       y2="32.5"
       gradientUnits="userSpaceOnUse">
      <stop
         offset=".635"
         stop-color="#2F2F2F"
         stop-opacity=".3"
         id="stop4993" />
      <stop
         offset=".917"
         stop-color="#505050"
         stop-opacity=".1"
         id="stop4995" />
    </linearGradient>
    <linearGradient
       id="stem_paint6_linear"
       x1="24.799999"
       y1="32.5"
       x2="27.299999"
       y2="32.5"
       gradientUnits="userSpaceOnUse">
      <stop
         offset=".635"
         stop-color="#2F2F2F"
         stop-opacity=".3"
         id="stop4998" />
      <stop
         offset=".917"
         stop-color="#505050"
         stop-opacity=".1"
         id="stop5000" />
    </linearGradient>
    <linearGradient
       id="stem_paint7_linear"
       x1="15.2"
       y1="13.32"
       x2="15.2"
       y2="15.875"
       gradientUnits="userSpaceOnUse">
      <stop
         stop-color="#404040"
         stop-opacity=".15"
         id="stop5003" />
      <stop
         offset=".078"
         stop-color="#323232"
         stop-opacity=".5"
         id="stop5005" />
      <stop
         offset=".443"
         stop-color="#404040"
         stop-opacity="0"
         id="stop5007" />
    </linearGradient>
    <linearGradient
       id="stem_paint8_linear"
       x1="0.5"
       y1="26.5"
       x2="2"
       y2="26.5"
       gradientUnits="userSpaceOnUse">
      <stop
         offset=".297"
         stop-color="#404040"
         stop-opacity="0"
         id="stop5010" />
      <stop
         offset=".714"
         stop-color="#404040"
         stop-opacity=".2"
         id="stop5012" />
      <stop
         offset="1"
         stop-color="#404040"
         stop-opacity=".3"
         id="stop5014" />
    </linearGradient>
    <linearGradient
       id="stem_paint9_linear"
       x1="29.629999"
       y1="26.5"
       x2="28.129999"
       y2="26.5"
       gradientUnits="userSpaceOnUse">
      <stop
         offset=".297"
         stop-color="#404040"
         stop-opacity="0"
         id="stop5017" />
      <stop
         offset=".714"
         stop-color="#404040"
         stop-opacity=".2"
         id="stop5019" />
      <stop
         offset="1"
         stop-color="#404040"
         stop-opacity=".3"
         id="stop5021" />
    </linearGradient>
  </defs>
  <g
     inkscape:groupmode="layer"
     id="layer3"
     inkscape:label="stem"
     transform="translate(14.515769)">
    <path
       d="M 7.1,13.32 H 3.4 A 1.4,1.4 0 0 0 2,14.72 V 17.8 A 0.2,0.2 0 0 1 1.8,18 H 0.9 a 0.4,0.4 0 0 0 -0.4,0.4 v 17.7 c 0,0.22 0.18,0.4 0.4,0.4 h 0.9 c 0.11,0 0.2,0.09 0.2,0.2 v 0.55 a 0.7,0.7 0 0 0 0.7,0.7 h 2.4 a 1.5,1.5 0 0 0 1.5,-1.5 V 27 A 0.5,0.5 0 0 1 7.1,26.5 H 11 a 1,1 0 0 1 1,1 v 18 a 1.5,1.5 0 0 0 1.5,1.5 h 3.04 a 1.5,1.5 0 0 0 1.5,-1.5 v -18 a 1,1 0 0 1 1,-1 h 4.26 a 0.5,0.5 0 0 1 0.5,0.5 v 9.45 a 1.5,1.5 0 0 0 1.5,1.5 h 2.13 a 0.7,0.7 0 0 0 0.7,-0.7 V 36.5 h 1.1 a 0.4,0.4 0 0 0 0.4,-0.4 V 18.4 A 0.4,0.4 0 0 0 29.23,18 h -1.097 v -3.28 a 1.4,1.4 0 0 0 -1.4,-1.4 h -3.825 a 0.3,0.3 0 0 1 -0.3,-0.3 V 1.056 A 0.657,0.657 0 0 0 21.952,0.4 H 17.177 A 0.29,0.29 0 0 1 16.902,0.2 0.29,0.29 0 0 0 16.627,0 H 13.41 a 0.292,0.292 0 0 0 -0.278,0.2 c -0.04,0.12 -0.151,0.2 -0.277,0.2 H 8.147 A 0.747,0.747 0 0 0 7.4,1.147 V 13.02 a 0.3,0.3 0 0 1 -0.3,0.3 z"
       fill="#404040"
       id="path4942" />
    <path
       d="M 7.1,13.32 H 3.4 A 1.4,1.4 0 0 0 2,14.72 V 17.8 A 0.2,0.2 0 0 1 1.8,18 H 0.9 a 0.4,0.4 0 0 0 -0.4,0.4 v 17.7 c 0,0.22 0.18,0.4 0.4,0.4 h 0.9 c 0.11,0 0.2,0.09 0.2,0.2 v 0.55 a 0.7,0.7 0 0 0 0.7,0.7 h 2.4 a 1.5,1.5 0 0 0 1.5,-1.5 V 27 A 0.5,0.5 0 0 1 7.1,26.5 H 11 a 1,1 0 0 1 1,1 v 18 a 1.5,1.5 0 0 0 1.5,1.5 h 3.04 a 1.5,1.5 0 0 0 1.5,-1.5 v -18 a 1,1 0 0 1 1,-1 h 4.26 a 0.5,0.5 0 0 1 0.5,0.5 v 9.45 a 1.5,1.5 0 0 0 1.5,1.5 h 2.13 a 0.7,0.7 0 0 0 0.7,-0.7 V 36.5 h 1.1 a 0.4,0.4 0 0 0 0.4,-0.4 V 18.4 A 0.4,0.4 0 0 0 29.23,18 h -1.097 v -3.28 a 1.4,1.4 0 0 0 -1.4,-1.4 h -3.825 a 0.3,0.3 0 0 1 -0.3,-0.3 V 1.056 A 0.657,0.657 0 0 0 21.952,0.4 H 17.177 A 0.29,0.29 0 0 1 16.902,0.2 0.29,0.29 0 0 0 16.627,0 H 13.41 a 0.292,0.292 0 0 0 -0.278,0.2 c -0.04,0.12 -0.151,0.2 -0.277,0.2 H 8.147 A 0.747,0.747 0 0 0 7.4,1.147 V 13.02 a 0.3,0.3 0 0 1 -0.3,0.3 z"
       class="switch-stem"
       fill="#5aa378"
       id="path4944" />
    <path
       d="M 7.649,0.538 A 0.3,0.3 0 0 1 7.9,0.4 L 13.066,0.39 V 2.895 A 0.3,0.3 0 0 1 13,3.082 L 12.71,3.445 A 0.2,0.2 0 0 0 12.666,3.57 V 6.2 a 0.2,0.2 0 0 0 0.08,0.16 l 0.32,0.24 v 6.29 a 0.5,0.5 0 0 1 -0.5,0.5 H 7.396 V 1.018 A 0.3,0.3 0 0 1 7.443,0.856 L 7.65,0.538 Z"
       fill="url(#stem_paint0_linear)"
       id="path4946"
       style="fill:url(#stem_paint0_linear)" />
    <path
       d="M 22.375,0.538 A 0.3,0.3 0 0 0 22.123,0.4 L 16.957,0.39 v 2.505 a 0.3,0.3 0 0 0 0.066,0.187 l 0.29,0.363 A 0.2,0.2 0 0 1 17.357,3.57 V 6.2 a 0.2,0.2 0 0 1 -0.08,0.16 l -0.32,0.24 v 6.29 a 0.5,0.5 0 0 0 0.5,0.5 h 5.17 V 1.018 A 0.3,0.3 0 0 0 22.579,0.856 Z"
       fill="url(#stem_paint1_linear)"
       id="path4948"
       style="fill:url(#stem_paint1_linear)" />
    <path
       d="m 13.067,3 h 3.893 l 0.4,0.5 v 1 h -4.693 v -1 z"
       fill="url(#stem_paint2_linear)"
       id="path4950"
       style="fill:url(#stem_paint2_linear)" />
    <path
       d="M 13.067,6.6 H 16.96 L 17.28,6.36 A 0.2,0.2 0 0 0 17.36,6.2 V 5 h -4.693 v 1.2 a 0.2,0.2 0 0 0 0.08,0.16 z"
       fill="url(#stem_paint3_linear)"
       id="path4952"
       style="fill:url(#stem_paint3_linear)" />
    <path
       d="m 18.04,45.5 v -19 H 12 v 19 a 1.5,1.5 0 0 0 1.5,1.5 h 3.04 a 1.5,1.5 0 0 0 1.5,-1.5 z"
       fill="url(#stem_paint4_linear)"
       id="path4954"
       style="fill:url(#stem_paint4_linear)" />
    <path
       d="m 3,26.9 c 0,-0.22 0.18,-0.4 0.4,-0.4 h 1.7 c 0.22,0 0.4,0.18 0.4,0.4 V 37.3 A 0.2,0.2 0 0 1 5.3,37.5 H 3.2 A 0.2,0.2 0 0 1 3,37.3 Z"
       fill="url(#stem_paint5_linear)"
       id="path4956"
       style="fill:url(#stem_paint5_linear)" />
    <path
       d="m 24.8,26.9 c 0,-0.22 0.18,-0.4 0.4,-0.4 h 1.7 c 0.22,0 0.4,0.18 0.4,0.4 v 10.4 a 0.2,0.2 0 0 1 -0.2,0.2 H 25 a 0.2,0.2 0 0 1 -0.2,-0.2 z"
       fill="url(#stem_paint6_linear)"
       id="path4958"
       style="fill:url(#stem_paint6_linear)" />
    <path
       d="M 7.4,13.32 H 3.5 A 1.5,1.5 0 0 0 2,14.82 h 26.133 a 1.5,1.5 0 0 0 -1.5,-1.5 z"
       fill="url(#stem_paint7_linear)"
       id="path4960"
       style="fill:url(#stem_paint7_linear)" />
    <path
       d="M 0.9,36.5 H 2 V 18 H 0.9 a 0.4,0.4 0 0 0 -0.4,0.4 v 17.7 c 0,0.22 0.18,0.4 0.4,0.4 z"
       fill="url(#stem_paint8_linear)"
       id="path4962"
       style="fill:url(#stem_paint8_linear)" />
    <path
       d="m 29.23,36.5 h -1.1 V 18 h 1.1 c 0.22,0 0.4,0.18 0.4,0.4 v 17.7 a 0.4,0.4 0 0 1 -0.4,0.4 z"
       fill="url(#stem_paint9_linear)"
       id="path4964"
       style="fill:url(#stem_paint9_linear)" />
  </g>
  <g
     inkscape:groupmode="layer"
     id="layer5"
     inkscape:label="top"
     transform="translate(14.515769)"
     style="display:inline">
    <path
       d="m 11.370549,19.071935 a 0.6,0.6 0 0 1 0.598,-0.643 h 6.166 a 0.6,0.6 0 0 1 0.599,0.644 l -0.39,5.356 c 0,0 4.198,-2.898 6.827,-2 1.5,0.512 2.388,1.137 3.195,2.5 1.777,3 0,9.87 0,9.87 H 1.7385486 c 0,0 -2.09600002,-5.87 0.404,-9.87 1.022,-1.635 2.345,-2.267 4.259,-2.5 2.215,-0.27 5.3510004,2 5.3510004,2 z"
       fill="url(#housing_top_standard_paint0_linear)"
       id="path6237"
       style="fill:url(#housing_top_standard_paint0_linear)" />
    <path
       d="m 18.163549,18.428935 h -6.223 a 0.6,0.6 0 0 0 -0.6,0.616 l 0.412,15.754 h 6.59 l 0.421,-15.754 a 0.6,0.6 0 0 0 -0.6,-0.616 z"
       fill="url(#housing_top_standard_paint1_linear)"
       id="path6239"
       style="fill:url(#housing_top_standard_paint1_linear)" />
    <path
       d="M -0.35745142,29.428935 H 6.2425486 a 0.4,0.4 0 0 1 0.4,0.4 v 4.97 h -7.00000002 z"
       fill="url(#housing_top_standard_paint2_linear)"
       id="path6241"
       style="fill:url(#housing_top_standard_paint2_linear)" />
    <path
       d="m 30.642549,29.428935 h -6.6 a 0.4,0.4 0 0 0 -0.4,0.4 v 4.97 h 7 z"
       fill="url(#housing_top_standard_paint3_linear)"
       id="path6243"
       style="fill:url(#housing_top_standard_paint3_linear)" />
    <path
       d="M 1.9425486,14.928935 H 28.342549 v 19.87 H 1.9425486 Z"
       fill="url(#housing_top_standard_paint4_linear)"
       id="path6245"
       style="fill:url(#housing_top_standard_paint4_linear)" />
    <path
       d="m 1.9425486,14.928935 v 19.87 h -4.8 v -19.87 z"
       fill="url(#housing_top_standard_paint5_linear)"
       fill-opacity="0.4"
       id="path6247"
       style="fill:url(#housing_top_standard_paint5_linear)" />
    <path
       d="m 28.642549,14.928935 v 19.87 h 4.8 v -19.87 z"
       fill="url(#housing_top_standard_paint6_linear)"
       fill-opacity="0.4"
       id="path6249"
       style="fill:url(#housing_top_standard_paint6_linear)" />
    <path
       d="m -4.4954514,15.559935 a 1.2,1.2 0 0 1 1.11,-0.745 H 33.672549 a 1.2,1.2 0 0 1 1.11,0.745 l 5.563,13.586 c 0.08,0.194 0.27,0.321 0.479,0.321 0.196,0 0.375,0.11 0.463,0.286 l 2.45,4.897 a 0.1,0.1 0 0 1 -0.089,0.145 h -57.006 a 0.1,0.1 0 0 1 -0.088,-0.146 l 2.605,-4.958 a 0.418,0.418 0 0 1 0.37,-0.224 c 0.17,0 0.323,-0.103 0.388,-0.26 z"
       class="switch-housing-top"
       fill="#5c5c5c"
       id="path6251" />
    <path
       d="M 33.142549,14.928935 H -2.8574514 v 4.15 H 33.142549 Z"
       fill="url(#housing_top_standard_paint7_linear)"
       id="path6253"
       style="fill:url(#housing_top_standard_paint7_linear)" />
    <g
       opacity="0.8"
       id="g6259"
       transform="translate(-13.527451,14.814935)">
      <path
         d="m 9.27,0.666 -5.7,13.948 h 6.1 a 1,1 0 0 0 1,-1 v -13.5 c 0,0 -1.067,0 -1.4,0.552 z"
         fill="url(#housing_top_standard_paint8_linear)"
         id="path6255"
         style="fill:url(#housing_top_standard_paint8_linear)" />
      <path
         d="m 9.27,0.666 -5.7,13.948 h 6.1 a 1,1 0 0 0 1,-1 v -13.5 c 0,0 -1.067,0 -1.4,0.552 z"
         fill="url(#housing_top_standard_paint9_linear)"
         id="path6257"
         style="fill:url(#housing_top_standard_paint9_linear)" />
    </g>
    <path
       opacity="0.8"
       d="m -10.357451,34.798935 0.9999996,-5.17 h -1.3999996 l -2.69,5.023 a 0.1,0.1 0 0 0 0.088,0.147 z"
       fill="url(#housing_top_standard_paint10_linear)"
       id="path6261"
       style="fill:url(#housing_top_standard_paint10_linear)" />
    <path
       opacity="0.8"
       d="m 40.642549,34.798935 -1,-5.17 h 1.4 l 2.691,5.023 a 0.1,0.1 0 0 1 -0.088,0.147 z"
       fill="url(#housing_top_standard_paint11_linear)"
       id="path6263"
       style="fill:url(#housing_top_standard_paint11_linear)" />
    <g
       opacity="0.8"
       id="g6269"
       style="display:inline"
       transform="translate(-13.527451,14.814935)">
      <path
         d="m 48.07,0.666 5.7,13.948 h -6.1 a 1,1 0 0 1 -1,-1 v -13.5 c 0,0 1.068,0 1.4,0.552 z"
         fill="url(#housing_top_standard_paint12_linear)"
         id="path6265"
         style="fill:url(#housing_top_standard_paint12_linear)" />
      <path
         d="m 48.07,0.666 5.7,13.948 h -6.1 a 1,1 0 0 1 -1,-1 v -13.5 c 0,0 1.068,0 1.4,0.552 z"
         fill="url(#housing_top_standard_paint13_linear)"
         id="path6267"
         style="fill:url(#housing_top_standard_paint13_linear)" />
    </g>
  </g>
  <g
     inkscape:groupmode="layer"
     id="layer6"
     inkscape:label="bottom"
     transform="translate(1.0565836)">
    <path
       d="m 43.443415,55.377405 h -3.5 v 10.82 c 0,0 0,1.5 1.75,1.5 1.75,0 1.75,-1.5 1.75,-1.5 z"
       fill="#a4966f"
       id="path7103" />
    <path
       d="m 43.443415,55.377405 h -3.5 v 5.82 h 3.5 z"
       fill="url(#housing_bottom_5_paint0_linear)"
       id="path7105"
       style="fill:url(#housing_bottom_5_paint0_linear)" />
    <path
       d="m 20.443415,55.377405 h -3.5 v 11.32 l 1.75,2 1.75,-2 z"
       fill="#a4966f"
       id="path7107" />
    <path
       d="m 19.643415,55.377405 v 6.882 c 0,0 0,1.117 -1,1.117 -1,0 -1,-1.117 -1,-1.117 v -6.883"
       stroke="#000000"
       stroke-opacity="0.42"
       stroke-width="0.4"
       id="path7109" />
    <path
       d="m 20.443415,55.377405 h -3.5 v 5.82 h 3.5 z"
       fill="url(#housing_bottom_5_paint1_linear)"
       id="path7111"
       style="fill:url(#housing_bottom_5_paint1_linear)" />
    <path
       d="m 0.94341731,34.395405 c 0,-0.184 0.14999999,-0.333 0.33299999,-0.333 H 56.318415 c 0.184,0 0.333,0.149 0.333,0.333 0,0.184 0.15,0.333 0.333,0.333 h 1.359 a 0.6,0.6 0 0 1 0.6,0.6 v 2.768 a 0.6,0.6 0 0 1 -0.6,0.6 h -1.467 a 0.6,0.6 0 0 0 -0.6,0.6 v 5.33 a 0.6,0.6 0 0 1 -0.027,0.18 l -3.174,10.147 a 0.6,0.6 0 0 1 -0.573,0.421 h -1.626 a 0.6,0.6 0 0 0 -0.6,0.6 v 5.32 c 0,0.05 -0.006,0.098 -0.018,0.146 l -1.201,4.802 a 0.6,0.6 0 0 1 -0.582,0.454 h -2.397 a 0.6,0.6 0 0 1 -0.582,-0.454 l -1.202,-4.802 a 0.602,0.602 0 0 1 -0.018,-0.146 v -5.32 a 0.6,0.6 0 0 0 -0.6,-0.6 h -7.466 a 0.6,0.6 0 0 0 -0.6,0.6 v 5.252 a 0.6,0.6 0 0 1 -0.064,0.269 l -1.77,3.538 a 0.6,0.6 0 0 1 -0.537,0.331 h -8.642 a 0.6,0.6 0 0 1 -0.499,-0.267 l -2.387,-3.578 a 0.6,0.6 0 0 1 -0.101,-0.333 v -5.212 a 0.6,0.6 0 0 0 -0.6,-0.6 h -6.8 a 0.6,0.6 0 0 0 -0.6,0.6 v 5.32 c 0,0.05 -0.006,0.098 -0.018,0.146 l -1.202,4.802 a 0.6,0.6 0 0 1 -0.582,0.454 H 9.4114172 a 0.6,0.6 0 0 1 -0.582,-0.454 l -1.201,-4.802 a 0.6,0.6 0 0 1 -0.018,-0.146 v -5.32 a 0.6,0.6 0 0 0 -0.6,-0.6 h -1.627 a 0.6,0.6 0 0 1 -0.573,-0.42 l -3.173,-10.15 a 0.6,0.6 0 0 1 -0.027,-0.179 v -5.328 a 0.6,0.6 0 0 0 -0.5999999,-0.6 h -1.46700003 a 0.6,0.6 0 0 1 -0.60000007,-0.6 v -2.769 a 0.6,0.6 0 0 1 0.60000007,-0.601 h 1.06700004 c 0.184,0 0.333,-0.15 0.333,-0.332 z"
       fill="#ffffff"
       opacity="0.5"
       id="path7113" />
    <path
       d="m 24.945415,39.243405 a 0.6,0.6 0 0 1 0.485,-0.247 h 6.816 a 0.6,0.6 0 0 1 0.51,0.284 l 1.687,2.716 c 0,0 0.777,0.545 1.17,1 v 6.7 h 2.33 v -6.7 c 0,0 1,-2.3 4,-2.3 2.999,0 4.162,1.688 4.434,2.172 a 0.553,0.553 0 0 1 0.066,0.274 v 12.224 h -10.83 v -0.28 a 0.6,0.6 0 0 0 -0.6,-0.6 h -12.756 a 0.65,0.65 0 0 0 -0.65,0.65 v 0.23 h -7.664 v -12.369 c 0,0 0,-2.3 2.5,-2.3 2.5,0 2.578,2.3 2.578,2.3 l -0.078,6.7 h 2.5 v -6.7 c 1,-0.3 1.5,-1 1.5,-1 l 2.002,-2.753 z"
       fill="url(#housing_bottom_5_paint2_linear)"
       fill-opacity="0.6"
       id="path7115"
       style="fill:url(#housing_bottom_5_paint2_linear)" />
    <path
       d="m 24.987415,42.197405 h 7.456 l -0.328,-8.17 h -6.59 z"
       fill="url(#housing_bottom_5_paint3_linear)"
       id="path7117"
       style="fill:url(#housing_bottom_5_paint3_linear)" />
    <path
       d="m 0.94341731,34.395405 c 0,-0.184 0.14999999,-0.333 0.33299999,-0.333 H 56.318415 c 0.184,0 0.333,0.149 0.333,0.333 0,0.184 0.15,0.333 0.333,0.333 h 1.359 a 0.6,0.6 0 0 1 0.6,0.6 v 2.768 a 0.6,0.6 0 0 1 -0.6,0.6 h -1.467 a 0.6,0.6 0 0 0 -0.6,0.6 v 5.33 a 0.6,0.6 0 0 1 -0.027,0.18 l -3.174,10.147 a 0.6,0.6 0 0 1 -0.573,0.421 h -1.626 a 0.6,0.6 0 0 0 -0.6,0.6 v 5.32 c 0,0.05 -0.006,0.098 -0.018,0.146 l -1.201,4.802 a 0.6,0.6 0 0 1 -0.582,0.454 h -2.397 a 0.6,0.6 0 0 1 -0.582,-0.454 l -1.202,-4.802 a 0.602,0.602 0 0 1 -0.018,-0.146 v -5.32 a 0.6,0.6 0 0 0 -0.6,-0.6 h -7.466 a 0.6,0.6 0 0 0 -0.6,0.6 v 5.252 a 0.6,0.6 0 0 1 -0.064,0.269 l -1.77,3.538 a 0.6,0.6 0 0 1 -0.537,0.331 h -8.642 a 0.6,0.6 0 0 1 -0.499,-0.267 l -2.387,-3.578 a 0.6,0.6 0 0 1 -0.101,-0.333 v -5.212 a 0.6,0.6 0 0 0 -0.6,-0.6 h -6.8 a 0.6,0.6 0 0 0 -0.6,0.6 v 5.32 c 0,0.05 -0.006,0.098 -0.018,0.146 l -1.202,4.802 a 0.6,0.6 0 0 1 -0.582,0.454 H 9.4114172 a 0.6,0.6 0 0 1 -0.582,-0.454 l -1.201,-4.802 a 0.6,0.6 0 0 1 -0.018,-0.146 v -5.32 a 0.6,0.6 0 0 0 -0.6,-0.6 h -1.627 a 0.6,0.6 0 0 1 -0.573,-0.42 l -3.173,-10.15 a 0.6,0.6 0 0 1 -0.027,-0.179 v -5.328 a 0.6,0.6 0 0 0 -0.5999999,-0.6 h -1.46700003 a 0.6,0.6 0 0 1 -0.60000007,-0.6 v -2.769 a 0.6,0.6 0 0 1 0.60000007,-0.601 h 1.06700004 c 0.184,0 0.333,-0.15 0.333,-0.332 z"
       class="switch-housing-bottom"
       fill="#5c5c5c"
       id="path7119" />
    <path
       opacity="0.8"
       d="m 48.343415,55.376405 v -16.68 h 8.6 c 0,0 -0.67,0 -0.67,0.89 v 5.13 l -3.33,10.66 z"
       fill="url(#housing_bottom_5_paint4_linear)"
       id="path7121"
       style="fill:url(#housing_bottom_5_paint4_linear)" />
    <path
       opacity="0.8"
       d="m 9.5434172,55.377405 v -16.68 H 0.94341731 c 0,0 0.66999989,0 0.66999989,0.89 v 5.13 l 3.33,10.66 z"
       fill="url(#housing_bottom_5_paint5_linear)"
       id="path7123"
       style="fill:url(#housing_bottom_5_paint5_linear)" />
    <path
       d="m 21.613415,61.367405 c 0,0 4.096,0.83 6.83,0.83 2.734,0 7.17,-0.83 7.17,-0.83 l -1.834,3.667 a 0.6,0.6 0 0 1 -0.537,0.332 h -8.648 a 0.6,0.6 0 0 1 -0.5,-0.268 z"
       fill="url(#housing_bottom_5_paint6_linear)"
       id="path7125"
       style="fill:url(#housing_bottom_5_paint6_linear)" />
    <g
       mask="url(#housing_bottom_5_a)"
       id="g7132"
       transform="translate(-1.0565828,34.027405)">
      <path
         d="m 22.67,21.07 a 0.6,0.6 0 0 1 0.6,-0.6 h 12.8 a 0.6,0.6 0 0 1 0.6,0.6 v 6.27 l -1.834,3.668 a 0.6,0.6 0 0 1 -0.537,0.331 h -8.647 a 0.6,0.6 0 0 1 -0.5,-0.267 L 22.67,27.339 v -6.27 z"
         fill="url(#housing_bottom_5_paint7_linear)"
         id="path7130"
         style="fill:url(#housing_bottom_5_paint7_linear)" />
    </g>
    <path
       d="m 7.6134172,55.977405 a 0.6,0.6 0 0 1 0.6,-0.6 h 4.7999978 a 0.6,0.6 0 0 1 0.6,0.6 v 5.22 l -1.228,5.041 a 0.6,0.6 0 0 1 -0.583,0.458 H 9.4154172 a 0.6,0.6 0 0 1 -0.583,-0.459 l -1.219,-5.04 z"
       fill="url(#housing_bottom_5_paint8_linear)"
       id="path7134"
       style="fill:url(#housing_bottom_5_paint8_linear)" />
    <path
       d="m 44.273415,55.977405 a 0.6,0.6 0 0 1 0.6,-0.6 h 4.8 a 0.6,0.6 0 0 1 0.6,0.6 v 5.22 l -1.228,5.041 a 0.6,0.6 0 0 1 -0.583,0.458 h -2.387 a 0.6,0.6 0 0 1 -0.583,-0.459 l -1.219,-5.04 z"
       fill="url(#housing_bottom_5_paint9_linear)"
       id="path7136"
       style="fill:url(#housing_bottom_5_paint9_linear)" />
    <path
       d="m 10.443416,46.197405 h 8.499999 v 3.5 h 2.5 v -3.5 h 14 v 3.5 h 2.5 v -3.5 h 9.5 v 8 H 10.443416 Z"
       fill="url(#housing_bottom_5_paint10_linear)"
       id="path7138"
       style="fill:url(#housing_bottom_5_paint10_linear)" />
    <path
       d="m 9.5434172,38.396405 h 9.3999978 v 4.8 H 9.5434172 Z"
       fill="url(#housing_bottom_5_paint11_linear)"
       id="path7140"
       style="fill:url(#housing_bottom_5_paint11_linear)" />
    <path
       d="m 37.943415,38.396405 h 10.4 v 4.8 h -10.4 z"
       fill="url(#housing_bottom_5_paint12_linear)"
       id="path7142"
       style="fill:url(#housing_bottom_5_paint12_linear)" />
    <path
       opacity="0.2"
       d="m 18.943415,34.067405 v 15.63 h 2.5 v -7.5 h 3.5 v -8.13"
       stroke="#000000"
       stroke-width="0.3"
       id="path7144" />
    <path
       opacity="0.2"
       d="m 21.443415,41.597405 a 0.6,0.6 0 0 1 0.6,-0.6 h 2.9 v 1.2 h -3.5 z"
       fill="#000000"
       id="path7146" />
    <path
       opacity="0.2"
       d="m 37.943415,34.067405 v 15.63 h -2.5 v -7.5 h -3.5 v -8.13"
       stroke="#000000"
       stroke-width="0.3"
       id="path7148" />
    <path
       opacity="0.2"
       d="m 35.443415,41.597405 a 0.6,0.6 0 0 0 -0.6,-0.6 h -2.9 v 1.2 h 3.5 z"
       fill="#000000"
       id="path7150" />
    <path
       d="m -1.0565828,35.327405 a 0.6,0.6 0 0 1 0.60000007,-0.6 H 2.4434172 v 3.97 h -2.89999993 a 0.6,0.6 0 0 1 -0.60000007,-0.6 z"
       fill="url(#housing_bottom_5_paint13_linear)"
       id="path7152"
       style="fill:url(#housing_bottom_5_paint13_linear)" />
    <path
       d="m 58.943415,35.327405 a 0.6,0.6 0 0 0 -0.6,-0.6 h -2.9 v 3.97 h 2.9 a 0.6,0.6 0 0 0 0.6,-0.6 z"
       fill="url(#housing_bottom_5_paint14_linear)"
       id="path7154"
       style="fill:url(#housing_bottom_5_paint14_linear)" />
    <path
       d="m 0.94341731,34.467405 c 0,-0.222 0.17999999,-0.4 0.39999999,-0.4 H 56.253415 c 0.22,0 0.4,0.178 0.4,0.4 v 0.73 H 0.94341731 Z"
       fill="url(#housing_bottom_5_paint15_linear)"
       id="path7156"
       style="fill:url(#housing_bottom_5_paint15_linear)" />
  </g>
  <defs
     id="defs6351">
    <linearGradient
       id="housing_top_standard_paint0_linear"
       x1="28.691"
       y1="3.6140001"
       x2="28.691"
       y2="20.014"
       gradientUnits="userSpaceOnUse"
       gradientTransform="translate(-13.527451,14.814935)">
      <stop
         offset=".214"
         stop-color="#FAECC5"
         id="stop6271" />
      <stop
         offset=".375"
         stop-color="#D9BD6F"
         id="stop6273" />
      <stop
         offset=".536"
         stop-color="#A4966F"
         id="stop6275" />
    </linearGradient>
    <linearGradient
       id="housing_top_standard_paint1_linear"
       x1="28.58"
       y1="3.6140001"
       x2="28.58"
       y2="9.6140003"
       gradientUnits="userSpaceOnUse"
       gradientTransform="translate(-13.527451,14.814935)">
      <stop
         offset=".167"
         stop-color="#FFE28F"
         id="stop6278" />
      <stop
         offset=".422"
         stop-color="#A4966F"
         id="stop6280" />
      <stop
         offset="1"
         stop-color="#68592E"
         id="stop6282" />
    </linearGradient>
    <linearGradient
       id="housing_top_standard_paint2_linear"
       x1="13.17"
       y1="20.114"
       x2="19.67"
       y2="20.114"
       gradientUnits="userSpaceOnUse"
       gradientTransform="translate(-13.527451,14.814935)">
      <stop
         offset=".313"
         stop-color="#fff"
         stop-opacity=".7"
         id="stop6285" />
      <stop
         offset="1"
         stop-color="#D7D7D7"
         stop-opacity=".42"
         id="stop6287" />
    </linearGradient>
    <linearGradient
       id="housing_top_standard_paint3_linear"
       x1="44.169998"
       y1="20.114"
       x2="37.669998"
       y2="20.114"
       gradientUnits="userSpaceOnUse"
       gradientTransform="translate(-13.527451,14.814935)">
      <stop
         offset=".313"
         stop-color="#fff"
         stop-opacity=".7"
         id="stop6290" />
      <stop
         offset="1"
         stop-color="#D7D7D7"
         stop-opacity=".42"
         id="stop6292" />
    </linearGradient>
    <linearGradient
       id="housing_top_standard_paint4_linear"
       x1="28.67"
       y1="2.7609999"
       x2="28.67"
       y2="20.115"
       gradientUnits="userSpaceOnUse"
       gradientTransform="translate(-13.527451,14.814935)">
      <stop
         stop-color="#fff"
         stop-opacity=".61"
         id="stop6295" />
      <stop
         offset=".128"
         stop-color="#fff"
         stop-opacity=".1"
         id="stop6297" />
      <stop
         offset="1"
         stop-color="#fff"
         stop-opacity=".06"
         id="stop6299" />
    </linearGradient>
    <linearGradient
       id="housing_top_standard_paint5_linear"
       x1="15.509"
       y1="9.6140003"
       x2="11.17"
       y2="9.6140003"
       gradientUnits="userSpaceOnUse"
       gradientTransform="translate(-13.527451,14.814935)">
      <stop
         stop-color="#fff"
         id="stop6302" />
      <stop
         offset=".182"
         stop-color="#fff"
         stop-opacity=".6"
         id="stop6304" />
      <stop
         offset="1"
         stop-opacity="0"
         id="stop6306" />
    </linearGradient>
    <linearGradient
       id="housing_top_standard_paint6_linear"
       x1="42.132"
       y1="9.6140003"
       x2="46.470001"
       y2="9.6140003"
       gradientUnits="userSpaceOnUse"
       gradientTransform="translate(-13.527451,14.814935)">
      <stop
         stop-color="#fff"
         id="stop6309" />
      <stop
         offset=".182"
         stop-color="#fff"
         stop-opacity=".6"
         id="stop6311" />
      <stop
         offset="1"
         stop-opacity="0"
         id="stop6313" />
    </linearGradient>
    <linearGradient
       id="housing_top_standard_paint7_linear"
       x1="28.729"
       y1="0.266"
       x2="28.729"
       y2="4"
       gradientUnits="userSpaceOnUse"
       gradientTransform="translate(-13.527451,14.814935)">
      <stop
         offset=".308"
         stop-color="#0A0A0A"
         stop-opacity=".25"
         id="stop6316" />
      <stop
         offset="1"
         stop-color="#0A0A0A"
         stop-opacity="0"
         id="stop6318" />
    </linearGradient>
    <linearGradient
       id="housing_top_standard_paint8_linear"
       x1="10.671"
       y1="8.6140003"
       x2="6.171"
       y2="8.6140003"
       gradientUnits="userSpaceOnUse">
      <stop
         stop-color="#0A0A0A"
         stop-opacity=".25"
         id="stop6321" />
      <stop
         offset="1"
         stop-color="#0A0A0A"
         stop-opacity=".05"
         id="stop6323" />
    </linearGradient>
    <linearGradient
       id="housing_top_standard_paint9_linear"
       x1="6.355"
       y1="12.114"
       x2="6.355"
       y2="16.114"
       gradientUnits="userSpaceOnUse">
      <stop
         stop-opacity="0"
         id="stop6326" />
      <stop
         offset="1"
         stop-opacity=".14"
         id="stop6328" />
    </linearGradient>
    <linearGradient
       id="housing_top_standard_paint10_linear"
       x1="0.67000002"
       y1="18.114"
       x2="2.1700001"
       y2="18.614"
       gradientUnits="userSpaceOnUse"
       gradientTransform="translate(-13.527451,14.814935)">
      <stop
         stop-color="#0A0A0A"
         stop-opacity=".25"
         id="stop6331" />
      <stop
         offset="1"
         stop-color="#0A0A0A"
         stop-opacity="0"
         id="stop6333" />
    </linearGradient>
    <linearGradient
       id="housing_top_standard_paint11_linear"
       x1="56.671001"
       y1="18.114"
       x2="55.171001"
       y2="18.614"
       gradientUnits="userSpaceOnUse"
       gradientTransform="translate(-13.527451,14.814935)">
      <stop
         stop-color="#0A0A0A"
         stop-opacity=".25"
         id="stop6336" />
      <stop
         offset="1"
         stop-color="#0A0A0A"
         stop-opacity="0"
         id="stop6338" />
    </linearGradient>
    <linearGradient
       id="housing_top_standard_paint12_linear"
       x1="46.669998"
       y1="8.6140003"
       x2="51.169998"
       y2="8.6140003"
       gradientUnits="userSpaceOnUse">
      <stop
         stop-color="#0A0A0A"
         stop-opacity=".25"
         id="stop6341" />
      <stop
         offset="1"
         stop-color="#0A0A0A"
         stop-opacity=".05"
         id="stop6343" />
    </linearGradient>
    <linearGradient
       id="housing_top_standard_paint13_linear"
       x1="50.987"
       y1="12.114"
       x2="50.987"
       y2="16.114"
       gradientUnits="userSpaceOnUse">
      <stop
         stop-opacity="0"
         id="stop6346" />
      <stop
         offset="1"
         stop-opacity=".14"
         id="stop6348" />
    </linearGradient>
  </defs>
  <mask
     id="housing_bottom_5_a"
     maskUnits="userSpaceOnUse"
     x="15"
     y="15"
     width="29"
     height="14">
    <ellipse
       cx="29.5"
       cy="21.768999"
       rx="14"
       ry="6.5"
       fill="#c4c4c4"
       id="ellipse7127" />
  </mask>
  <defs
     id="defs7248">
    <linearGradient
       id="housing_bottom_5_paint0_linear"
       x1="42.75"
       y1="21.349001"
       x2="42.75"
       y2="26.169001"
       gradientUnits="userSpaceOnUse"
       gradientTransform="translate(-1.0565828,34.027405)">
      <stop
         stop-opacity=".3"
         id="stop7158" />
      <stop
         offset="1"
         stop-opacity="0"
         id="stop7160" />
    </linearGradient>
    <linearGradient
       id="housing_bottom_5_paint1_linear"
       x1="19.75"
       y1="21.349001"
       x2="19.75"
       y2="26.169001"
       gradientUnits="userSpaceOnUse"
       gradientTransform="translate(-1.0565828,34.027405)">
      <stop
         stop-opacity=".3"
         id="stop7163" />
      <stop
         offset="1"
         stop-opacity="0"
         id="stop7165" />
    </linearGradient>
    <linearGradient
       id="housing_bottom_5_paint2_linear"
       x1="30.02"
       y1="4.9689999"
       x2="30.02"
       y2="21.368999"
       gradientUnits="userSpaceOnUse"
       gradientTransform="translate(-1.0565828,34.027405)">
      <stop
         offset=".214"
         stop-color="#FAECC5"
         id="stop7168" />
      <stop
         offset=".375"
         stop-color="#D9BD6F"
         id="stop7170" />
      <stop
         offset=".536"
         stop-color="#A4966F"
         id="stop7172" />
    </linearGradient>
    <linearGradient
       id="housing_bottom_5_paint3_linear"
       x1="30"
       y1="7.6690001"
       x2="30"
       y2="0.169"
       gradientUnits="userSpaceOnUse"
       gradientTransform="translate(-1.0565828,34.027405)">
      <stop
         offset=".164"
         stop-color="#FEF9EE"
         id="stop7175" />
      <stop
         offset="1"
         stop-color="#68592E"
         id="stop7177" />
    </linearGradient>
    <linearGradient
       id="housing_bottom_5_paint4_linear"
       x1="53"
       y1="3.1689999"
       x2="53"
       y2="11.169"
       gradientUnits="userSpaceOnUse"
       gradientTransform="translate(-1.0565828,34.027405)">
      <stop
         stop-opacity=".6"
         id="stop7180" />
      <stop
         offset="1"
         stop-color="#0A0A0A"
         stop-opacity=".15"
         id="stop7182" />
    </linearGradient>
    <linearGradient
       id="housing_bottom_5_paint5_linear"
       x1="7"
       y1="3.1689999"
       x2="7"
       y2="11.169"
       gradientUnits="userSpaceOnUse"
       gradientTransform="translate(-1.0565828,34.027405)">
      <stop
         stop-opacity=".6"
         id="stop7185" />
      <stop
         offset="1"
         stop-color="#0A0A0A"
         stop-opacity=".15"
         id="stop7187" />
    </linearGradient>
    <linearGradient
       id="housing_bottom_5_paint6_linear"
       x1="22.5"
       y1="26.169001"
       x2="36.5"
       y2="26.169001"
       gradientUnits="userSpaceOnUse"
       gradientTransform="translate(-1.0565828,34.027405)">
      <stop
         stop-opacity=".25"
         id="stop7190" />
      <stop
         offset=".518"
         stop-opacity="0"
         id="stop7192" />
      <stop
         offset="1"
         stop-opacity=".35"
         id="stop7194" />
    </linearGradient>
    <linearGradient
       id="housing_bottom_5_paint7_linear"
       x1="22.5"
       y1="26.169001"
       x2="36.5"
       y2="26.169001"
       gradientUnits="userSpaceOnUse">
      <stop
         stop-opacity=".3"
         id="stop7197" />
      <stop
         offset=".518"
         stop-opacity=".1"
         id="stop7199" />
      <stop
         offset="1"
         stop-opacity=".3"
         id="stop7201" />
    </linearGradient>
    <linearGradient
       id="housing_bottom_5_paint8_linear"
       x1="8.427"
       y1="26.913"
       x2="14.427"
       y2="26.913"
       gradientUnits="userSpaceOnUse"
       gradientTransform="translate(-1.0565828,34.027405)">
      <stop
         stop-opacity=".5"
         id="stop7204" />
      <stop
         offset=".518"
         stop-opacity=".15"
         id="stop7206" />
      <stop
         offset="1"
         stop-opacity=".5"
         id="stop7208" />
    </linearGradient>
    <linearGradient
       id="housing_bottom_5_paint9_linear"
       x1="45.087002"
       y1="26.913"
       x2="51.087002"
       y2="26.913"
       gradientUnits="userSpaceOnUse"
       gradientTransform="translate(-1.0565828,34.027405)">
      <stop
         stop-opacity=".5"
         id="stop7211" />
      <stop
         offset=".518"
         stop-opacity=".15"
         id="stop7213" />
      <stop
         offset="1"
         stop-opacity=".5"
         id="stop7215" />
    </linearGradient>
    <linearGradient
       id="housing_bottom_5_paint10_linear"
       x1="30"
       y1="10.169"
       x2="30"
       y2="20.169001"
       gradientUnits="userSpaceOnUse"
       gradientTransform="translate(-1.0565828,34.027405)">
      <stop
         stop-opacity=".1"
         id="stop7218" />
      <stop
         offset="1"
         stop-opacity="0"
         id="stop7220" />
    </linearGradient>
    <linearGradient
       id="housing_bottom_5_paint11_linear"
       x1="16"
       y1="4.1690001"
       x2="16"
       y2="8.6689997"
       gradientUnits="userSpaceOnUse"
       gradientTransform="translate(-1.0565828,34.027405)">
      <stop
         stop-opacity=".3"
         id="stop7223" />
      <stop
         offset="1"
         stop-opacity="0"
         id="stop7225" />
    </linearGradient>
    <linearGradient
       id="housing_bottom_5_paint12_linear"
       x1="45.400002"
       y1="4.1690001"
       x2="45.400002"
       y2="8.6689997"
       gradientUnits="userSpaceOnUse"
       gradientTransform="translate(-1.0565828,34.027405)">
      <stop
         stop-opacity=".3"
         id="stop7228" />
      <stop
         offset="1"
         stop-opacity="0"
         id="stop7230" />
    </linearGradient>
    <linearGradient
       id="housing_bottom_5_paint13_linear"
       x1="0"
       y1="2.6689999"
       x2="3.5"
       y2="2.6689999"
       gradientUnits="userSpaceOnUse"
       gradientTransform="translate(-1.0565828,34.027405)">
      <stop
         stop-opacity=".2"
         id="stop7233" />
      <stop
         offset="1"
         stop-opacity="0"
         id="stop7235" />
    </linearGradient>
    <linearGradient
       id="housing_bottom_5_paint14_linear"
       x1="60"
       y1="2.6689999"
       x2="56.5"
       y2="2.6689999"
       gradientUnits="userSpaceOnUse"
       gradientTransform="translate(-1.0565828,34.027405)">
      <stop
         stop-opacity=".2"
         id="stop7238" />
      <stop
         offset="1"
         stop-opacity="0"
         id="stop7240" />
    </linearGradient>
    <linearGradient
       id="housing_bottom_5_paint15_linear"
       x1="29.855"
       y1="0.039000001"
       x2="29.855"
       y2="1.169"
       gradientUnits="userSpaceOnUse"
       gradientTransform="translate(-1.0565828,34.027405)">
      <stop
         stop-opacity=".26"
         id="stop7243" />
      <stop
         offset="1"
         stop-opacity=".11"
         id="stop7245" />
    </linearGradient>
  </defs>
  <style
     id="style7506">
.switch-housing-top { 
}
.switch-housing-bottom { 
}
.switch-stem { 
} </style>
</svg>
